<svg width="217" height="29" viewBox="0 0 217 29" fill="none" xmlns="http://www.w3.org/2000/svg">
<g id="Logo">
<path id="Logo_2" d="M180.217 28.5H216.741V21.3802H195.169V17.9401H216.741V11.0599H195.169V7.61977H216.741V0.5H180.217V28.5ZM145.778 28.5H160.734V7.61977H173.806V0.5H132.711V7.61977H145.783V28.5H145.778ZM102.675 15.5397L104.396 7.61977H111.011L112.733 15.5397H102.67H102.675ZM84.3925 28.5H99.8295L101.112 22.5779H114.301L115.583 28.5H131.097L123.92 0.5H91.5644L84.3874 28.5H84.3925ZM44.38 28.5H78.4976V21.3802H59.3317V0.5H44.3749V28.5H44.38ZM29.5867 28.5H0V21.3802H22.6548V18.0624H8.01987C3.00873 18.0624 0 14.9434 0 10.9427V7.62486C0 3.62414 3.00873 0.505096 8.01987 0.505096H37.6065V7.62486H14.9517V10.9427H29.5867C34.5978 10.9427 37.6065 14.0617 37.6065 18.0624V21.3802C37.6065 25.381 34.5978 28.5 29.5867 28.5Z" fill="#CFCFCF"/>
</g>
</svg>
