<svg width="970" height="424" viewBox="0 0 970 424" fill="none" xmlns="http://www.w3.org/2000/svg">
<path d="M16.6387 291.54V328.559C16.6387 333.84 17.5012 337.701 19.2261 340.143C21.8002 343.672 25.4225 345.437 30.093 345.437C34.7901 345.437 38.4256 343.672 40.9997 340.143C42.7246 337.781 43.5871 333.92 43.5871 328.559V291.54H52.8618V331.107C52.8618 337.582 50.845 342.916 46.8113 347.109C42.2735 351.779 36.7007 354.115 30.093 354.115C23.4853 354.115 17.9258 351.779 13.4145 347.109C9.38084 342.916 7.36403 337.582 7.36403 331.107V291.54H16.6387ZM103.195 300.695L95.6719 305.154C94.2654 302.712 92.9253 301.12 91.6515 300.377C90.3247 299.528 88.613 299.103 86.5166 299.103C83.9425 299.103 81.8063 299.833 80.1079 301.293C78.4095 302.726 77.5603 304.53 77.5603 306.706C77.5603 309.705 79.7895 312.12 84.2477 313.951L90.3777 316.458C95.3667 318.475 99.0155 320.943 101.324 323.862C103.633 326.755 104.787 330.311 104.787 334.53C104.787 340.183 102.903 344.853 99.135 348.542C95.3402 352.257 90.6298 354.115 85.004 354.115C79.67 354.115 75.2649 352.536 71.7885 349.378C68.3653 346.22 66.229 341.775 65.3798 336.043L74.774 333.973C75.1985 337.582 75.9416 340.076 77.0031 341.456C78.9137 344.11 81.7001 345.437 85.3622 345.437C88.2548 345.437 90.6564 344.468 92.567 342.531C94.4777 340.594 95.433 338.139 95.433 335.167C95.433 333.973 95.2605 332.885 94.9156 331.903C94.5971 330.895 94.0796 329.979 93.3631 329.156C92.6732 328.307 91.7709 327.524 90.6564 326.808C89.5418 326.065 88.215 325.362 86.6758 324.698L80.7448 322.23C72.3325 318.674 68.1264 313.473 68.1264 306.627C68.1264 302.009 69.8911 298.148 73.4206 295.043C76.95 291.912 81.3419 290.346 86.5962 290.346C93.6816 290.346 99.2146 293.796 103.195 300.695ZM177.511 300.695L169.987 305.154C168.581 302.712 167.241 301.12 165.967 300.377C164.64 299.528 162.928 299.103 160.832 299.103C158.258 299.103 156.122 299.833 154.423 301.293C152.725 302.726 151.876 304.53 151.876 306.706C151.876 309.705 154.105 312.12 158.563 313.951L164.693 316.458C169.682 318.475 173.331 320.943 175.64 323.862C177.948 326.755 179.103 330.311 179.103 334.53C179.103 340.183 177.219 344.853 173.45 348.542C169.656 352.257 164.945 354.115 159.319 354.115C153.985 354.115 149.58 352.536 146.104 349.378C142.681 346.22 140.544 341.775 139.695 336.043L149.089 333.973C149.514 337.582 150.257 340.076 151.318 341.456C153.229 344.11 156.016 345.437 159.678 345.437C162.57 345.437 164.972 344.468 166.882 342.531C168.793 340.594 169.748 338.139 169.748 335.167C169.748 333.973 169.576 332.885 169.231 331.903C168.913 330.895 168.395 329.979 167.679 329.156C166.989 328.307 166.086 327.524 164.972 326.808C163.857 326.065 162.53 325.362 160.991 324.698L155.06 322.23C146.648 318.674 142.442 313.473 142.442 306.627C142.442 302.009 144.207 298.148 147.736 295.043C151.265 291.912 155.657 290.346 160.912 290.346C167.997 290.346 173.53 293.796 177.511 300.695ZM200.378 291.54V328.559C200.378 333.84 201.24 337.701 202.965 340.143C205.539 343.672 209.162 345.437 213.832 345.437C218.529 345.437 222.165 343.672 224.739 340.143C226.464 337.781 227.326 333.92 227.326 328.559V291.54H236.601V331.107C236.601 337.582 234.584 342.916 230.551 347.109C226.013 351.779 220.44 354.115 213.832 354.115C207.225 354.115 201.665 351.779 197.154 347.109C193.12 342.916 191.103 337.582 191.103 331.107V291.54H200.378ZM261.459 328.042V353H252.184V291.54H262.693C267.841 291.54 271.729 291.898 274.356 292.615C277.01 293.331 279.345 294.685 281.362 296.675C284.891 300.125 286.656 304.477 286.656 309.731C286.656 315.357 284.772 319.815 281.003 323.106C277.235 326.397 272.153 328.042 265.758 328.042H261.459ZM261.459 319.444H264.922C273.44 319.444 277.7 316.167 277.7 309.612C277.7 303.27 273.308 300.098 264.524 300.098H261.459V319.444ZM306.299 328.042V353H297.024V291.54H307.533C312.681 291.54 316.569 291.898 319.196 292.615C321.85 293.331 324.185 294.685 326.202 296.675C329.731 300.125 331.496 304.477 331.496 309.731C331.496 315.357 329.612 319.815 325.844 323.106C322.075 326.397 316.993 328.042 310.598 328.042H306.299ZM306.299 319.444H309.762C318.281 319.444 322.54 316.167 322.54 309.612C322.54 303.27 318.148 300.098 309.364 300.098H306.299V319.444ZM351.139 291.54V344.283H369.211V353H341.864V291.54H351.139ZM385.988 326.45L365.926 291.54H376.594L390.645 316.1L404.737 291.54H415.404L395.263 326.45V353H385.988V326.45ZM494.735 294.844V305.83C489.375 301.346 483.829 299.103 478.097 299.103C471.781 299.103 466.46 301.372 462.135 305.91C457.783 310.421 455.606 315.941 455.606 322.469C455.606 328.918 457.783 334.358 462.135 338.789C466.487 343.221 471.821 345.437 478.136 345.437C481.4 345.437 484.174 344.906 486.456 343.845C487.73 343.314 489.043 342.597 490.397 341.695C491.776 340.793 493.223 339.705 494.735 338.431V349.617C489.428 352.615 483.855 354.115 478.017 354.115C469.233 354.115 461.737 351.05 455.527 344.919C449.344 338.736 446.252 331.279 446.252 322.549C446.252 314.72 448.84 307.741 454.014 301.611C460.383 294.101 468.623 290.346 478.734 290.346C484.253 290.346 489.587 291.845 494.735 294.844ZM518.319 315.583H544.83V291.54H554.105V353H544.83V324.3H518.319V353H509.045V291.54H518.319V315.583ZM605.751 338.073H579.44L572.593 353H562.602L593.014 287.679L622.35 353H612.2L605.751 338.073ZM601.97 329.355L592.854 308.458L583.301 329.355H601.97ZM640.163 291.54V353H630.888V291.54H640.163ZM655.746 353V287.361L700.567 334.252V291.54H709.841V356.742L665.02 309.97V353H655.746ZM796.815 294.844V305.83C791.455 301.346 785.908 299.103 780.176 299.103C773.86 299.103 768.54 301.372 764.214 305.91C759.862 310.421 757.686 315.941 757.686 322.469C757.686 328.918 759.862 334.358 764.214 338.789C768.566 343.221 773.9 345.437 780.216 345.437C783.48 345.437 786.253 344.906 788.535 343.845C789.809 343.314 791.123 342.597 792.476 341.695C793.856 340.793 795.302 339.705 796.815 338.431V349.617C791.508 352.615 785.935 354.115 780.097 354.115C771.313 354.115 763.816 351.05 757.607 344.919C751.423 338.736 748.332 331.279 748.332 322.549C748.332 314.72 750.919 307.741 756.094 301.611C762.463 294.101 770.703 290.346 780.813 290.346C786.333 290.346 791.667 291.845 796.815 294.844ZM805.91 321.991C805.91 313.34 809.081 305.91 815.423 299.7C821.739 293.491 829.329 290.386 838.192 290.386C846.949 290.386 854.459 293.517 860.722 299.78C867.011 306.043 870.156 313.566 870.156 322.35C870.156 331.187 866.998 338.683 860.682 344.84C854.34 351.023 846.684 354.115 837.714 354.115C829.78 354.115 822.655 351.368 816.339 345.875C809.386 339.798 805.91 331.837 805.91 321.991ZM815.264 322.111C815.264 328.904 817.546 334.49 822.111 338.869C826.648 343.248 831.89 345.437 837.834 345.437C844.282 345.437 849.722 343.208 854.154 338.75C858.586 334.238 860.802 328.745 860.802 322.27C860.802 315.715 858.612 310.222 854.234 305.791C849.882 301.332 844.495 299.103 838.073 299.103C831.677 299.103 826.277 301.332 821.872 305.791C817.467 310.196 815.264 315.636 815.264 322.111ZM903.452 326.808L922.48 353H911.135L893.581 327.843H891.909V353H882.634V291.54H893.501C901.621 291.54 907.486 293.066 911.095 296.118C915.076 299.515 917.066 303.999 917.066 309.572C917.066 313.924 915.819 317.666 913.324 320.797C910.83 323.929 907.539 325.932 903.452 326.808ZM891.909 319.762H894.854C903.638 319.762 908.03 316.405 908.03 309.692C908.03 303.402 903.758 300.258 895.213 300.258H891.909V319.762ZM941.844 328.042V353H932.569V291.54H943.078C948.226 291.54 952.114 291.898 954.741 292.615C957.395 293.331 959.73 294.685 961.747 296.675C965.276 300.125 967.041 304.477 967.041 309.731C967.041 315.357 965.157 319.815 961.389 323.106C957.62 326.397 952.539 328.042 946.143 328.042H941.844ZM941.844 319.444H945.307C953.826 319.444 958.085 316.167 958.085 309.612C958.085 303.27 953.693 300.098 944.909 300.098H941.844V319.444Z" fill="white"/>
<path d="M11.2128 396.849H23.3645V385.829H27.6157V414H23.3645V400.845H11.2128V414H6.96153V385.829H11.2128V396.849ZM42.9152 385.829V402.797C42.9152 405.218 43.3105 406.988 44.1012 408.107C45.2811 409.724 46.9414 410.533 49.0823 410.533C51.2353 410.533 52.9017 409.724 54.0816 408.107C54.8723 407.024 55.2676 405.254 55.2676 402.797V385.829H59.5188V403.965C59.5188 406.933 58.5944 409.378 56.7455 411.3C54.6655 413.44 52.1111 414.511 49.0823 414.511C46.0535 414.511 43.5051 413.44 41.4373 411.3C39.5884 409.378 38.6639 406.933 38.6639 403.965V385.829H42.9152ZM70.5853 414V383.913L91.13 405.406V385.829H95.3813V415.715L74.8365 394.276V414H70.5853ZM114.22 389.824V414H109.969V389.824H103.492V385.829H120.679V389.824H114.22ZM144.317 389.824H133.023V396.594H143.989V400.589H133.023V410.004H144.317V414H128.772V385.829H144.317V389.824ZM163.74 401.994L172.462 414H167.262L159.215 402.469H158.449V414H154.198V385.829H159.179C162.901 385.829 165.589 386.528 167.243 387.927C169.068 389.484 169.98 391.539 169.98 394.094C169.98 396.089 169.409 397.804 168.265 399.239C167.122 400.675 165.613 401.593 163.74 401.994ZM158.449 398.765H159.799C163.825 398.765 165.838 397.226 165.838 394.149C165.838 391.266 163.88 389.824 159.963 389.824H158.449V398.765ZM196.939 390.025L193.49 392.069C192.846 390.95 192.231 390.22 191.647 389.879C191.039 389.49 190.255 389.295 189.294 389.295C188.114 389.295 187.135 389.63 186.356 390.299C185.578 390.956 185.188 391.783 185.188 392.78C185.188 394.155 186.21 395.262 188.254 396.101L191.064 397.25C193.35 398.175 195.023 399.306 196.081 400.644C197.139 401.97 197.669 403.6 197.669 405.534C197.669 408.125 196.805 410.266 195.078 411.956C193.338 413.659 191.179 414.511 188.6 414.511C186.155 414.511 184.136 413.787 182.543 412.34C180.974 410.892 179.994 408.855 179.605 406.227L183.911 405.279C184.106 406.933 184.446 408.076 184.933 408.709C185.809 409.925 187.086 410.533 188.765 410.533C190.09 410.533 191.191 410.089 192.067 409.201C192.943 408.313 193.381 407.188 193.381 405.826C193.381 405.279 193.302 404.78 193.144 404.33C192.998 403.868 192.76 403.448 192.432 403.071C192.116 402.682 191.702 402.323 191.191 401.994C190.68 401.654 190.072 401.331 189.367 401.027L186.648 399.896C182.792 398.266 180.864 395.882 180.864 392.744C180.864 390.627 181.673 388.857 183.291 387.434C184.909 385.999 186.922 385.281 189.33 385.281C192.578 385.281 195.114 386.862 196.939 390.025ZM221.517 399.787C221.517 395.821 222.97 392.415 225.877 389.569C228.772 386.723 232.251 385.299 236.314 385.299C240.328 385.299 243.77 386.735 246.641 389.605C249.524 392.476 250.965 395.925 250.965 399.951C250.965 404.001 249.518 407.438 246.623 410.26C243.716 413.094 240.206 414.511 236.095 414.511C232.458 414.511 229.192 413.252 226.297 410.734C223.11 407.948 221.517 404.299 221.517 399.787ZM225.804 399.841C225.804 402.955 226.85 405.516 228.943 407.523C231.023 409.53 233.425 410.533 236.15 410.533C239.105 410.533 241.599 409.512 243.63 407.468C245.662 405.4 246.677 402.882 246.677 399.914C246.677 396.91 245.674 394.392 243.667 392.361C241.672 390.317 239.203 389.295 236.259 389.295C233.328 389.295 230.852 390.317 228.833 392.361C226.814 394.38 225.804 396.873 225.804 399.841ZM274.676 389.824H264.86V396.594H274.329V400.589H264.86V414H260.608V385.829H274.676V389.824ZM314.233 399.33H325.874V400.261C325.874 402.377 325.625 404.251 325.126 405.881C324.64 407.389 323.819 408.8 322.663 410.114C320.048 413.057 316.721 414.529 312.683 414.529C308.742 414.529 305.366 413.106 302.556 410.26C299.746 407.401 298.341 403.971 298.341 399.969C298.341 395.882 299.771 392.415 302.629 389.569C305.488 386.71 308.967 385.281 313.066 385.281C315.267 385.281 317.323 385.731 319.233 386.631C321.057 387.531 322.852 388.991 324.615 391.01L321.587 393.911C319.275 390.834 316.459 389.295 313.139 389.295C310.159 389.295 307.659 390.323 305.64 392.379C303.621 394.398 302.611 396.928 302.611 399.969C302.611 403.107 303.736 405.692 305.986 407.723C308.091 409.609 310.371 410.552 312.829 410.552C314.921 410.552 316.8 409.846 318.467 408.435C320.133 407.012 321.063 405.309 321.258 403.326H314.233V399.33ZM339.787 385.829V410.004H348.071V414H335.536V385.829H339.787ZM353.828 399.787C353.828 395.821 355.281 392.415 358.188 389.569C361.083 386.723 364.562 385.299 368.625 385.299C372.639 385.299 376.081 386.735 378.952 389.605C381.835 392.476 383.276 395.925 383.276 399.951C383.276 404.001 381.829 407.438 378.934 410.26C376.027 413.094 372.517 414.511 368.406 414.511C364.769 414.511 361.503 413.252 358.608 410.734C355.421 407.948 353.828 404.299 353.828 399.787ZM358.115 399.841C358.115 402.955 359.161 405.516 361.254 407.523C363.334 409.53 365.736 410.533 368.461 410.533C371.416 410.533 373.91 409.512 375.941 407.468C377.973 405.4 378.988 402.882 378.988 399.914C378.988 396.91 377.985 394.392 375.978 392.361C373.983 390.317 371.514 389.295 368.57 389.295C365.639 389.295 363.163 390.317 361.144 392.361C359.125 394.38 358.115 396.873 358.115 399.841ZM392.919 414V385.829H397.152C399.038 385.829 400.54 385.974 401.659 386.266C402.79 386.558 403.745 387.051 404.524 387.744C405.314 388.462 405.941 389.356 406.403 390.426C406.877 391.509 407.115 392.604 407.115 393.711C407.115 395.73 406.342 397.439 404.797 398.838C406.294 399.349 407.474 400.243 408.337 401.52C409.213 402.785 409.651 404.257 409.651 405.935C409.651 408.137 408.872 409.998 407.315 411.519C406.379 412.455 405.327 413.106 404.159 413.471C402.882 413.824 401.282 414 399.36 414H392.919ZM397.171 397.925H398.503C400.084 397.925 401.24 397.579 401.969 396.885C402.711 396.18 403.082 395.146 403.082 393.784C403.082 392.458 402.705 391.454 401.951 390.773C401.197 390.08 400.102 389.733 398.667 389.733H397.171V397.925ZM397.171 410.004H399.798C401.72 410.004 403.131 409.627 404.031 408.873C404.98 408.058 405.454 407.024 405.454 405.771C405.454 404.555 404.998 403.533 404.086 402.706C403.198 401.891 401.611 401.483 399.324 401.483H397.171V410.004ZM435.442 407.158H423.381L420.243 414H415.663L429.603 384.059L443.05 414H438.397L435.442 407.158ZM433.708 403.162L429.53 393.583L425.151 403.162H433.708ZM455.138 385.829V410.004H463.422V414H450.887V385.829H455.138ZM498.655 398.327L503.728 404.457L503.892 404.275C504.439 403.679 504.956 403.095 505.443 402.523C505.929 401.952 506.398 401.374 506.848 400.79L509.621 403.636C509.28 404.123 508.83 404.689 508.271 405.333C507.723 405.978 507.067 406.72 506.3 407.559L511.518 414H506.227L503.417 410.552C500.839 413.215 498.156 414.547 495.371 414.547C492.877 414.547 490.761 413.751 489.021 412.157C487.319 410.552 486.467 408.569 486.467 406.209C486.467 403.399 487.817 401.064 490.518 399.203L492.36 397.944C492.385 397.932 492.427 397.901 492.488 397.852C492.549 397.804 492.634 397.737 492.744 397.652C490.883 395.669 489.952 393.717 489.952 391.795C489.952 389.897 490.572 388.353 491.813 387.16C493.078 385.968 494.708 385.372 496.703 385.372C498.637 385.372 500.237 385.95 501.502 387.106C502.767 388.261 503.399 389.721 503.399 391.485C503.399 392.701 503.052 393.802 502.359 394.787C501.678 395.772 500.443 396.952 498.655 398.327ZM495.28 400.717L495.043 400.881C493.303 402.086 492.117 403.053 491.485 403.782C490.864 404.512 490.554 405.285 490.554 406.1C490.554 407.267 491.022 408.338 491.959 409.311C492.932 410.247 494.003 410.716 495.17 410.716C496.812 410.716 498.704 409.639 500.845 407.486L495.28 400.717ZM496.192 395.335L496.539 395.079C497.135 394.629 497.627 394.24 498.017 393.911C498.406 393.571 498.686 393.285 498.856 393.054C499.221 392.604 499.403 392.05 499.403 391.393C499.403 390.651 499.154 390.049 498.655 389.587C498.156 389.125 497.487 388.894 496.648 388.894C495.882 388.894 495.237 389.131 494.714 389.605C494.191 390.055 493.93 390.633 493.93 391.339C493.93 392.166 494.258 392.981 494.915 393.784L495.973 395.061C496.01 395.122 496.083 395.213 496.192 395.335ZM535.038 414V385.829H540.95C543.784 385.829 546.022 386.108 547.664 386.668C549.428 387.215 551.027 388.146 552.463 389.459C555.37 392.111 556.823 395.596 556.823 399.914C556.823 404.245 555.309 407.748 552.28 410.424C550.76 411.762 549.166 412.692 547.5 413.215C545.943 413.738 543.735 414 540.877 414H535.038ZM539.289 410.004H541.205C543.115 410.004 544.702 409.803 545.967 409.402C547.232 408.976 548.376 408.301 549.397 407.377C551.49 405.467 552.536 402.98 552.536 399.914C552.536 396.825 551.502 394.319 549.434 392.397C547.573 390.682 544.83 389.824 541.205 389.824H539.289V410.004ZM565.08 399.787C565.08 395.821 566.534 392.415 569.441 389.569C572.336 386.723 575.815 385.299 579.877 385.299C583.891 385.299 587.334 386.735 590.204 389.605C593.087 392.476 594.529 395.925 594.529 399.951C594.529 404.001 593.081 407.438 590.186 410.26C587.279 413.094 583.77 414.511 579.658 414.511C576.021 414.511 572.755 413.252 569.86 410.734C566.674 407.948 565.08 404.299 565.08 399.787ZM569.368 399.841C569.368 402.955 570.414 405.516 572.506 407.523C574.586 409.53 576.988 410.533 579.713 410.533C582.669 410.533 585.163 409.512 587.194 407.468C589.225 405.4 590.241 402.882 590.241 399.914C590.241 396.91 589.237 394.392 587.23 392.361C585.236 390.317 582.766 389.295 579.823 389.295C576.891 389.295 574.416 390.317 572.397 392.361C570.377 394.38 569.368 396.873 569.368 399.841ZM603.187 414L609.117 383.712L618.787 405.607L628.804 383.712L634.132 414H629.771L627.052 396.995L618.714 415.295L610.613 396.977L607.584 414H603.187ZM659.959 389.824H648.665V396.594H659.63V400.589H648.665V410.004H659.959V414H644.413V385.829H659.959V389.824ZM685.768 390.025L682.319 392.069C681.675 390.95 681.06 390.22 680.476 389.879C679.868 389.49 679.084 389.295 678.123 389.295C676.943 389.295 675.964 389.63 675.185 390.299C674.407 390.956 674.017 391.783 674.017 392.78C674.017 394.155 675.039 395.262 677.083 396.101L679.893 397.25C682.179 398.175 683.852 399.306 684.91 400.644C685.968 401.97 686.498 403.6 686.498 405.534C686.498 408.125 685.634 410.266 683.907 411.956C682.167 413.659 680.008 414.511 677.429 414.511C674.985 414.511 672.965 413.787 671.372 412.34C669.803 410.892 668.824 408.855 668.434 406.227L672.74 405.279C672.935 406.933 673.276 408.076 673.762 408.709C674.638 409.925 675.915 410.533 677.594 410.533C678.92 410.533 680.02 410.089 680.896 409.201C681.772 408.313 682.21 407.188 682.21 405.826C682.21 405.279 682.131 404.78 681.973 404.33C681.827 403.868 681.589 403.448 681.261 403.071C680.945 402.682 680.531 402.323 680.02 401.994C679.509 401.654 678.901 401.331 678.196 401.027L675.477 399.896C671.621 398.266 669.693 395.882 669.693 392.744C669.693 390.627 670.502 388.857 672.12 387.434C673.738 385.999 675.751 385.281 678.159 385.281C681.407 385.281 683.943 386.862 685.768 390.025ZM704.242 389.824V414H699.991V389.824H693.513V385.829H710.701V389.824H704.242ZM723.045 385.829V414H718.793V385.829H723.045ZM754.929 387.343V392.379C752.472 390.323 749.93 389.295 747.303 389.295C744.408 389.295 741.969 390.335 739.986 392.415C737.991 394.483 736.994 397.013 736.994 400.005C736.994 402.961 737.991 405.455 739.986 407.486C741.981 409.518 744.426 410.533 747.321 410.533C748.817 410.533 750.088 410.29 751.134 409.803C751.718 409.56 752.32 409.232 752.941 408.818C753.573 408.405 754.236 407.906 754.929 407.322V412.449C752.497 413.824 749.942 414.511 747.266 414.511C743.24 414.511 739.804 413.106 736.957 410.296C734.123 407.462 732.706 404.044 732.706 400.042C732.706 396.454 733.892 393.255 736.264 390.445C739.183 387.002 742.96 385.281 747.595 385.281C750.125 385.281 752.57 385.968 754.929 387.343ZM796.366 390.025L792.918 392.069C792.273 390.95 791.659 390.22 791.075 389.879C790.467 389.49 789.682 389.295 788.721 389.295C787.541 389.295 786.562 389.63 785.784 390.299C785.005 390.956 784.616 391.783 784.616 392.78C784.616 394.155 785.638 395.262 787.681 396.101L790.491 397.25C792.778 398.175 794.451 399.306 795.509 400.644C796.567 401.97 797.096 403.6 797.096 405.534C797.096 408.125 796.233 410.266 794.505 411.956C792.766 413.659 790.607 414.511 788.028 414.511C785.583 414.511 783.564 413.787 781.97 412.34C780.401 410.892 779.422 408.855 779.033 406.227L783.339 405.279C783.533 406.933 783.874 408.076 784.361 408.709C785.236 409.925 786.514 410.533 788.192 410.533C789.518 410.533 790.619 410.089 791.495 409.201C792.371 408.313 792.808 407.188 792.808 405.826C792.808 405.279 792.729 404.78 792.571 404.33C792.425 403.868 792.188 403.448 791.86 403.071C791.543 402.682 791.13 402.323 790.619 401.994C790.108 401.654 789.5 401.331 788.794 401.027L786.076 399.896C782.22 398.266 780.292 395.882 780.292 392.744C780.292 390.627 781.101 388.857 782.719 387.434C784.336 385.999 786.349 385.281 788.758 385.281C792.006 385.281 794.542 386.862 796.366 390.025ZM810.772 385.829V402.797C810.772 405.218 811.167 406.988 811.958 408.107C813.138 409.724 814.798 410.533 816.939 410.533C819.092 410.533 820.758 409.724 821.938 408.107C822.729 407.024 823.124 405.254 823.124 402.797V385.829H827.375V403.965C827.375 406.933 826.451 409.378 824.602 411.3C822.522 413.44 819.968 414.511 816.939 414.511C813.91 414.511 811.362 413.44 809.294 411.3C807.445 409.378 806.52 406.933 806.52 403.965V385.829H810.772ZM842.693 402.56V414H838.442V385.829H843.259C845.619 385.829 847.401 385.993 848.605 386.321C849.821 386.65 850.892 387.27 851.816 388.182C853.434 389.764 854.243 391.758 854.243 394.167C854.243 396.746 853.379 398.789 851.652 400.297C849.925 401.806 847.595 402.56 844.664 402.56H842.693ZM842.693 398.619H844.281C848.185 398.619 850.137 397.117 850.137 394.112C850.137 391.205 848.124 389.751 844.098 389.751H842.693V398.619ZM867.17 402.56V414H862.919V385.829H867.736C870.096 385.829 871.878 385.993 873.082 386.321C874.298 386.65 875.369 387.27 876.293 388.182C877.911 389.764 878.72 391.758 878.72 394.167C878.72 396.746 877.856 398.789 876.129 400.297C874.402 401.806 872.072 402.56 869.141 402.56H867.17ZM867.17 398.619H868.758C872.662 398.619 874.614 397.117 874.614 394.112C874.614 391.205 872.601 389.751 868.575 389.751H867.17V398.619ZM891.647 385.829V410.004H899.931V414H887.396V385.829H891.647ZM912.512 385.829V414H908.26V385.829H912.512ZM939.124 389.824H927.829V396.594H938.795V400.589H927.829V410.004H939.124V414H923.578V385.829H939.124V389.824ZM964.933 390.025L961.484 392.069C960.839 390.95 960.225 390.22 959.641 389.879C959.033 389.49 958.248 389.295 957.288 389.295C956.108 389.295 955.128 389.63 954.35 390.299C953.571 390.956 953.182 391.783 953.182 392.78C953.182 394.155 954.204 395.262 956.248 396.101L959.057 397.25C961.344 398.175 963.017 399.306 964.075 400.644C965.133 401.97 965.662 403.6 965.662 405.534C965.662 408.125 964.799 410.266 963.071 411.956C961.332 413.659 959.173 414.511 956.594 414.511C954.149 414.511 952.13 413.787 950.537 412.34C948.967 410.892 947.988 408.855 947.599 406.227L951.905 405.279C952.1 406.933 952.44 408.076 952.927 408.709C953.803 409.925 955.08 410.533 956.758 410.533C958.084 410.533 959.185 410.089 960.061 409.201C960.937 408.313 961.375 407.188 961.375 405.826C961.375 405.279 961.296 404.78 961.137 404.33C960.991 403.868 960.754 403.448 960.426 403.071C960.11 402.682 959.696 402.323 959.185 401.994C958.674 401.654 958.066 401.331 957.361 401.027L954.642 399.896C950.786 398.266 948.858 395.882 948.858 392.744C948.858 390.627 949.667 388.857 951.285 387.434C952.902 385.999 954.916 385.281 957.324 385.281C960.572 385.281 963.108 386.862 964.933 390.025Z" fill="white"/>
<rect x="7.49219" width="230.189" height="267.679" fill="#627885"/>
<path d="M18.7393 21.7422H122.695V27.5397H110.786C101.632 27.5397 94.8016 30.8302 90.2958 37.4113C85.79 43.8878 83.5371 53.8638 83.5371 67.3392V178.433C83.5371 191.073 85.5396 201.937 89.5448 211.025C93.55 220.113 99.3074 227.111 106.817 232.021C114.327 236.931 123.267 239.386 133.637 239.386C142.72 239.386 151.196 237.505 159.063 233.745C166.93 229.88 173.188 224.604 177.837 217.919C186.348 205.175 190.604 187.312 190.604 164.331V85.9854C190.604 60.9149 185.597 43.8878 175.584 34.9042C172.723 32.2927 169.72 30.4646 166.573 29.42C163.426 28.3754 158.884 27.7487 152.948 27.5397V21.7422H225.685V27.5397C221.179 28.062 217.603 28.95 214.956 30.2035C212.31 31.457 209.592 33.5462 206.803 36.4711C202.726 40.9629 199.615 46.9694 197.47 54.4905C195.324 61.9072 194.251 70.6819 194.251 80.8146V168.091C194.251 191.282 189.924 209.04 181.27 221.366C176.478 228.052 171.365 232.857 165.929 235.782C154.486 242.049 140.861 245.183 125.055 245.183C113.397 245.183 102.812 243.512 93.2997 240.169C83.7874 236.826 75.9201 232.073 69.6978 225.91C57.9684 214.106 52.1037 197.184 52.1037 175.142V67.3392C52.1037 40.8062 43.0206 27.5397 24.8543 27.5397H18.7393V21.7422Z" fill="white"/>
<rect x="737" width="230.189" height="267.679" fill="#BB871A"/>
<path d="M926.024 165.869H929.699C928.019 174.987 926.164 182.569 924.134 188.613C922.103 194.657 919.303 200.958 915.733 207.515C901.521 233.127 882.513 245.933 858.711 245.933C843.729 245.933 829.762 240.862 816.81 230.719C803.859 220.475 793.568 206.746 785.937 189.535C778.306 172.221 774.49 153.576 774.49 133.598C774.49 121.714 775.995 109.932 779.006 98.2531C782.016 86.4715 786.392 75.5095 792.132 65.367C797.943 55.1222 804.664 46.3628 812.295 39.0889C823.846 28.0244 837.183 22.4922 852.305 22.4922C857.345 22.4922 862.106 23.1581 866.587 24.4899C871.137 25.7193 875.408 27.7683 879.398 30.6369C883.459 33.403 887.624 37.0911 891.895 41.7013C896.655 46.5164 900.156 48.924 902.396 48.924C907.367 48.924 913.597 41.3428 921.088 26.1803H924.764L927.809 129.449H924.344C923.153 121.97 921.998 115.874 920.878 111.162C919.828 106.449 918.393 101.531 916.573 96.409C911.742 81.9637 906.036 69.5674 899.456 59.2201C892.875 48.8728 885.699 40.9842 877.928 35.5544C870.157 30.1246 862.176 27.4097 853.985 27.4097C844.184 27.4097 836.203 31.2516 830.042 38.9352C823.881 46.5164 819.296 58.4005 816.285 74.5874C813.345 90.6719 811.875 111.162 811.875 136.057C811.875 150.4 812.4 163.103 813.45 174.168C814.5 185.232 816.11 194.606 818.281 202.29C820.521 209.871 823.321 216.223 826.682 221.345C830.812 227.492 835.818 232.205 841.698 235.483C847.649 238.659 854.125 240.247 861.126 240.247C867.637 240.247 873.867 239.018 879.818 236.559C885.839 234.1 891.44 230.463 896.62 225.648C901.871 220.731 906.666 214.686 911.007 207.515C914.507 201.573 917.343 195.631 919.513 189.689C921.683 183.644 923.854 175.704 926.024 165.869Z" fill="white"/>
<rect x="251" width="230.189" height="267.679" fill="#627885"/>
<path d="M423.977 30.9675H427.677V104.78H423.977C419.537 87.0076 414.497 73.1388 408.859 63.1739C404.771 56.1881 399.626 50.0756 393.424 44.8363C387.292 39.4942 380.385 35.3336 372.702 32.3544C365.091 29.2725 357.373 27.7315 349.55 27.7315C343.7 27.7315 338.484 28.9129 333.903 31.2757C329.322 33.6386 325.445 37.1314 322.274 41.7543C320.018 45.0417 318.221 48.7401 316.882 52.8493C315.543 56.9586 314.873 60.9138 314.873 64.7148C314.873 71.906 316.776 78.1213 320.582 83.3606C322.344 85.9289 324.846 88.3944 328.088 90.7573C331.401 93.1201 335.63 95.4315 340.775 97.6916C345.99 99.9517 353.25 102.725 362.553 106.013C365.091 107.143 366.817 107.811 367.734 108.016L372.914 109.865L381.16 112.947C395.115 118.187 405.3 122.809 411.713 126.816C418.127 130.823 423.589 136.113 428.1 142.688C431.624 147.516 434.337 153.167 436.24 159.639C438.214 166.111 439.201 173.097 439.201 180.596C439.201 187.993 438.108 195.441 435.923 202.94C433.738 210.337 430.637 216.86 426.62 222.51C421.404 230.318 414.955 236.174 407.273 240.077C399.661 243.981 390.957 245.933 381.16 245.933C374.324 245.933 367.875 244.906 361.813 242.851C355.822 240.899 348.492 237.252 339.823 231.91C334.185 228.623 329.886 226.414 326.926 225.284C323.965 224.051 321.181 223.435 318.574 223.435C313.57 223.435 309.305 225.387 305.781 229.291C302.328 233.092 300.037 238.536 298.91 245.625H295.209V146.078H298.91C300.39 163.748 305.288 179.774 313.605 194.156C318.609 202.58 324.987 210.439 332.74 217.733C340.563 224.925 348.739 230.523 357.267 234.53C365.795 238.536 373.901 240.54 381.583 240.54C388.42 240.54 394.657 238.896 400.296 235.609C406.004 232.321 410.445 227.75 413.616 221.894C416.788 216.038 418.374 209.412 418.374 202.015C418.374 194.208 416.224 187.171 411.925 180.904C409.951 178.13 407.379 175.562 404.207 173.199C401.106 170.836 397.053 168.422 392.049 165.957C387.116 163.491 380.314 160.563 371.645 157.173L361.073 153.013C344.581 146.54 333.163 141.507 326.82 137.911C319.701 134.11 314.098 130.309 310.01 126.508C305.993 122.707 302.504 117.878 299.544 112.023C295.174 103.804 292.989 94.7638 292.989 84.9016C292.989 72.9847 295.421 62.3006 300.284 52.8493C305.147 43.2953 311.948 35.8473 320.688 30.5052C329.428 25.1632 339.119 22.4922 349.761 22.4922C365.831 22.4922 382.499 29.0156 399.767 42.0625C405.828 46.48 409.951 48.6887 412.136 48.6887C417.634 48.6887 421.581 42.7817 423.977 30.9675Z" fill="black"/>
<path d="M423.977 30.9675H427.677V104.78H423.977C419.537 87.0076 414.497 73.1388 408.859 63.1739C404.771 56.1881 399.626 50.0756 393.424 44.8363C387.292 39.4942 380.385 35.3336 372.702 32.3544C365.091 29.2725 357.373 27.7315 349.55 27.7315C343.7 27.7315 338.484 28.9129 333.903 31.2757C329.322 33.6386 325.445 37.1314 322.274 41.7543C320.018 45.0417 318.221 48.7401 316.882 52.8493C315.543 56.9586 314.873 60.9138 314.873 64.7148C314.873 71.906 316.776 78.1213 320.582 83.3606C322.344 85.9289 324.846 88.3944 328.088 90.7573C331.401 93.1201 335.63 95.4315 340.775 97.6916C345.99 99.9517 353.25 102.725 362.553 106.013C365.091 107.143 366.817 107.811 367.734 108.016L372.914 109.865L381.16 112.947C395.115 118.187 405.3 122.809 411.713 126.816C418.127 130.823 423.589 136.113 428.1 142.688C431.624 147.516 434.337 153.167 436.24 159.639C438.214 166.111 439.201 173.097 439.201 180.596C439.201 187.993 438.108 195.441 435.923 202.94C433.738 210.337 430.637 216.86 426.62 222.51C421.404 230.318 414.955 236.174 407.273 240.077C399.661 243.981 390.957 245.933 381.16 245.933C374.324 245.933 367.875 244.906 361.813 242.851C355.822 240.899 348.492 237.252 339.823 231.91C334.185 228.623 329.886 226.414 326.926 225.284C323.965 224.051 321.181 223.435 318.574 223.435C313.57 223.435 309.305 225.387 305.781 229.291C302.328 233.092 300.037 238.536 298.91 245.625H295.209V146.078H298.91C300.39 163.748 305.288 179.774 313.605 194.156C318.609 202.58 324.987 210.439 332.74 217.733C340.563 224.925 348.739 230.523 357.267 234.53C365.795 238.536 373.901 240.54 381.583 240.54C388.42 240.54 394.657 238.896 400.296 235.609C406.004 232.321 410.445 227.75 413.616 221.894C416.788 216.038 418.374 209.412 418.374 202.015C418.374 194.208 416.224 187.171 411.925 180.904C409.951 178.13 407.379 175.562 404.207 173.199C401.106 170.836 397.053 168.422 392.049 165.957C387.116 163.491 380.314 160.563 371.645 157.173L361.073 153.013C344.581 146.54 333.163 141.507 326.82 137.911C319.701 134.11 314.098 130.309 310.01 126.508C305.993 122.707 302.504 117.878 299.544 112.023C295.174 103.804 292.989 94.7638 292.989 84.9016C292.989 72.9847 295.421 62.3006 300.284 52.8493C305.147 43.2953 311.948 35.8473 320.688 30.5052C329.428 25.1632 339.119 22.4922 349.761 22.4922C365.831 22.4922 382.499 29.0156 399.767 42.0625C405.828 46.48 409.951 48.6887 412.136 48.6887C417.634 48.6887 421.581 42.7817 423.977 30.9675Z" fill="white"/>
<rect x="494" width="230.189" height="267.679" fill="#BB871A"/>
<path d="M666.977 30.2175H670.677V104.03H666.977C662.537 86.2576 657.497 72.3888 651.859 62.4239C647.771 55.4381 642.626 49.3256 636.424 44.0863C630.292 38.7442 623.385 34.5836 615.702 31.6044C608.091 28.5225 600.373 26.9815 592.55 26.9815C586.7 26.9815 581.484 28.1629 576.903 30.5257C572.322 32.8886 568.445 36.3814 565.274 41.0043C563.018 44.2917 561.221 47.9901 559.882 52.0993C558.543 56.2086 557.873 60.1638 557.873 63.9648C557.873 71.156 559.776 77.3713 563.582 82.6106C565.344 85.1789 567.846 87.6444 571.088 90.0073C574.401 92.3701 578.63 94.6815 583.775 96.9416C588.99 99.2017 596.25 101.975 605.553 105.263C608.091 106.393 609.817 107.061 610.734 107.266L615.914 109.115L624.16 112.197C638.115 117.437 648.3 122.059 654.713 126.066C661.127 130.073 666.589 135.363 671.1 141.938C674.624 146.766 677.337 152.417 679.24 158.889C681.214 165.361 682.201 172.347 682.201 179.846C682.201 187.243 681.108 194.691 678.923 202.19C676.738 209.587 673.637 216.11 669.62 221.76C664.404 229.568 657.955 235.424 650.273 239.327C642.661 243.231 633.957 245.183 624.16 245.183C617.324 245.183 610.875 244.156 604.813 242.101C598.822 240.149 591.492 236.502 582.823 231.16C577.185 227.873 572.886 225.664 569.926 224.534C566.965 223.301 564.181 222.685 561.574 222.685C556.57 222.685 552.305 224.637 548.781 228.541C545.328 232.342 543.037 237.786 541.91 244.875H538.209V145.328H541.91C543.39 162.998 548.288 179.024 556.605 193.406C561.609 201.83 567.987 209.689 575.74 216.983C583.563 224.175 591.739 229.773 600.267 233.78C608.795 237.786 616.901 239.79 624.583 239.79C631.42 239.79 637.657 238.146 643.296 234.859C649.004 231.571 653.445 227 656.616 221.144C659.788 215.288 661.374 208.662 661.374 201.265C661.374 193.458 659.224 186.421 654.925 180.154C652.951 177.38 650.379 174.812 647.207 172.449C644.106 170.086 640.053 167.672 635.049 165.207C630.116 162.741 623.314 159.813 614.645 156.423L604.073 152.263C587.581 145.79 576.163 140.757 569.82 137.161C562.701 133.36 557.098 129.559 553.01 125.758C548.993 121.957 545.504 117.128 542.544 111.273C538.174 103.054 535.989 94.0138 535.989 84.1516C535.989 72.2347 538.421 61.5506 543.284 52.0993C548.147 42.5453 554.948 35.0973 563.688 29.7552C572.428 24.4132 582.119 21.7422 592.761 21.7422C608.831 21.7422 625.499 28.2656 642.767 41.3125C648.828 45.73 652.951 47.9387 655.136 47.9387C660.634 47.9387 664.581 42.0317 666.977 30.2175Z" fill="white"/>
</svg>
